<?xml version="1.0" encoding="UTF-8"?>
<svg id="_圖層_1" xmlns="http://www.w3.org/2000/svg" version="1.1" viewBox="0 0 180 180">
  <!-- Generator: Adobe Illustrator 29.2.1, SVG Export Plug-In . SVG Version: 2.1.0 Build 116)  -->
  <defs>
    <style>
      .st0 {
        fill: #FFCC00;
      }

      .st1 {
        fill: #FD1A1C;
      }

      .st2 {
        fill:#DDD;
      }
    </style>
  </defs>
  <rect class="st1" width="180" height="180"/>
  <g>
    <polygon class="st2" points="127 104.5 111.1 112.5 111.1 43.8 127 35.8 127 104.5"/>
    <polygon class="st2" points="158.7 144.2 142.8 160 142.8 27.9 158.7 20 158.7 144.2"/>
    <polygon class="st2" points="142.8 160 134.9 144.2 142.8 136.2 142.8 160"/>
    <path class="st0" d="M55.7,104.5c10.2,0,18.5,8.3,18.5,18.5s-8.3,18.5-18.5,18.5-18.5-8.3-18.5-18.5,8.3-18.5,18.5-18.5M55.7,88.7c-19,0-34.3,15.4-34.3,34.3s15.4,34.3,34.3,34.3,34.3-15.4,34.3-34.3-15.4-34.3-34.3-34.3h0Z"/>
    <path class="st2" d="M55.7,35.8H21.3l7.9-15.8h26.4c4.4,0,7.9,3.6,7.9,7.9s-3.6,7.9-7.9,7.9h0Z"/>
    <path class="st2" d="M55.7,70.2H21.3l7.9-15.8h26.4c4.4,0,7.9,3.6,7.9,7.9s-3.6,7.9-7.9,7.9h0Z"/>
    <path class="st0" d="M82.1,35.8h-26.4c-4.4,0-7.9-3.6-7.9-7.9s3.6-7.9,7.9-7.9h26.4c4.4,0,7.9,3.6,7.9,7.9s-3.6,7.9-7.9,7.9h0Z"/>
    <path class="st0" d="M82.1,70.2h-26.4c-4.4,0-7.9-3.6-7.9-7.9s3.6-7.9,7.9-7.9h26.4c4.4,0,7.9,3.6,7.9,7.9s-3.6,7.9-7.9,7.9h0Z"/>
    <path class="st0" d="M47.7,88.7V27.9c0-4.4,3.6-7.9,7.9-7.9s7.9,3.6,7.9,7.9v60.8c0,4.4-3.6,7.9-7.9,7.9s-7.9-3.6-7.9-7.9h0Z"/>
  </g>
</svg>